<svg xmlns="http://www.w3.org/2000/svg" viewBox="0 0 1000 600" preserveAspectRatio="xMidYMid meet">
  <rect width="100%" height="100%" fill="#071026" />
  <defs>
    <filter id="glow" x="-50%" y="-50%" width="200%" height="200%">
      <feGaussianBlur stdDeviation="8" result="coloredBlur"/>
      <feMerge>
        <feMergeNode in="coloredBlur"/>
        <feMergeNode in="SourceGraphic"/>
      </feMerge>
    </filter>
    <linearGradient id="pinGrad" x1="0" x2="1">
      <stop offset="0" stop-color="#06b6d4"/>
      <stop offset="1" stop-color="#7c3aed"/>
    </linearGradient>
  </defs>

  <!-- Stylized USA map with regional pins -->
  <g transform="translate(60,40)">
    <path d="M20 120 C40 60, 120 40, 200 60 C260 80, 320 60, 380 70 C430 80, 480 70, 540 90 C600 110, 660 100, 720 120 C760 135, 800 170, 820 220 C840 280, 780 320, 720 340 C660 360, 600 350, 540 360 C480 370, 420 360, 360 370 C300 380, 240 380, 200 360 C160 340, 120 300, 80 280 C40 260, 10 200, 20 120 Z" fill="#0b1320" stroke="#0f1724" stroke-width="2"/>
    <path d="M20 120 C40 60, 120 40, 200 60 C260 80, 320 60, 380 70 C430 80, 480 70, 540 90 C600 110, 660 100, 720 120 C760 135, 800 170, 820 220 C840 280, 780 320, 720 340 C660 360, 600 350, 540 360 C480 370, 420 360, 360 370 C300 380, 240 380, 200 360 C160 340, 120 300, 80 280 C40 260, 10 200, 20 120 Z" fill="none" stroke="url(#pinGrad)" stroke-width="1" opacity="0.25" filter="url(#glow)"/>

    <!-- Markers -->
    <g transform="translate(650,90)">
      <circle r="10" fill="url(#pinGrad)" stroke="#fff" stroke-opacity="0.12"/>
      <circle r="22" fill="none" stroke="#06b6d480" stroke-width="2"/>
    </g>
    <g transform="translate(520,150)">
      <circle r="10" fill="#06b6d4" stroke="#fff" stroke-opacity="0.12"/>
      <circle r="18" fill="none" stroke="#06b6d440" stroke-width="2"/>
    </g>
    <g transform="translate(520,240)">
      <circle r="10" fill="#f59e0b" stroke="#fff" stroke-opacity="0.12"/>
      <circle r="18" fill="none" stroke="#f59e0b40" stroke-width="2"/>
    </g>
    <g transform="translate(120,260)">
      <circle r="10" fill="#ef4444" stroke="#fff" stroke-opacity="0.12"/>
      <circle r="18" fill="none" stroke="#ef444440" stroke-width="2"/>
    </g>
    <g transform="translate(80,140)">
      <circle r="10" fill="#7c3aed" stroke="#fff" stroke-opacity="0.12"/>
      <circle r="18" fill="none" stroke="#7c3aed40" stroke-width="2"/>
    </g>

    <!-- Connecting arcs -->
    <path d="M650 90 C600 120, 560 140, 520 150" stroke="#06b6d480" stroke-width="1.5" fill="none"/>
    <path d="M520 150 C500 180, 520 220, 520 240" stroke="#f59e0b40" stroke-width="1.5" fill="none"/>
    <path d="M120 260 C320 200, 460 180, 520 150" stroke="#ef444440" stroke-width="1.5" fill="none"/>

    <!-- Legend -->
    <g transform="translate(20,330)">
      <rect x="0" y="0" width="340" height="90" rx="10" fill="#071126" opacity="0.95" stroke="#0b1220"/>
      <text x="18" y="22" fill="#cbd5e1" font-family="Inter, Arial, sans-serif" font-size="14" font-weight="700">GEO Focus — Regional Signals</text>
      <g transform="translate(16,32)">
        <circle cx="8" cy="18" r="6" fill="#06b6d4"/><text x="22" y="22" fill="#9aa6b2" font-family="Inter, Arial, sans-serif" font-size="13">Entity Authority (Major metros)</text>
        <circle cx="8" cy="44" r="6" fill="#f59e0b"/><text x="22" y="48" fill="#9aa6b2" font-family="Inter, Arial, sans-serif" font-size="13">Service-area content (Regional)</text>
      </g>
    </g>
  </g>
</svg>
